<?xml version="1.0" encoding="utf-8"?>
<!-- Generator: Adobe Illustrator 22.1.0, SVG Export Plug-In . SVG Version: 6.00 Build 0)  -->
<svg version="1.1" id="Слой_1" xmlns="http://www.w3.org/2000/svg" xmlns:xlink="http://www.w3.org/1999/xlink" x="0px" y="0px"
	 viewBox="0 0 50 38.3" style="enable-background:new 0 0 50 38.3;" xml:space="preserve">
<style type="text/css">
	.st0{fill:#5B60A6;}
</style>
<g>
	<path class="st0" d="M41.3,14.7L27,20c-1.1,0.4-2.8,0.4-3.9,0L8.7,14.7L4.5,28.9c-0.3,1.1,0.3,2.3,1.4,2.7l18.3,6.6
		c0.3,0.1,0.5,0.1,0.8,0.1c0.2,0,0.5,0,0.8-0.1L44,31.6c1.1-0.4,1.7-1.5,1.4-2.7L41.3,14.7z"/>
	<path class="st0" d="M47.8,28.5V10.9l-1.4,0.6v16.2l-2,8.8c-0.1,0.2-0.1,0.4-0.1,0.6c0,0.1,0,0.3,0.1,0.4c0.1,0.1,0.2,0.2,0.4,0.2
		c0.3,0,0.5-0.2,0.8-0.6l0.3-0.3c0.3-0.3,0.6-0.5,1-0.5c0.4,0,0.7,0.2,1,0.5l0.2,0.3c0.3,0.3,0.5,0.6,0.8,0.6h0
		c0.2,0,0.3-0.1,0.4-0.2c0.1-0.1,0.1-0.3,0.1-0.4c0-0.1,0-0.3-0.1-0.5L47.8,28.5z"/>
	<path class="st0" d="M49.2,8.6c1.1,0.4,1.1,1,0,1.4l-22.3,8.3c-1.1,0.4-2.8,0.4-3.8,0L0.8,10c-1.1-0.4-1.1-1,0-1.4l22.3-8.3
		c1.1-0.4,2.8-0.4,3.8,0L49.2,8.6z"/>
</g>
</svg>
