<?xml version="1.0" encoding="utf-8"?>
<!-- Generator: Adobe Illustrator 22.1.0, SVG Export Plug-In . SVG Version: 6.00 Build 0)  -->
<svg version="1.1" id="Слой_1" xmlns="http://www.w3.org/2000/svg" xmlns:xlink="http://www.w3.org/1999/xlink" x="0px" y="0px"
	 viewBox="0 0 35.9 55" style="enable-background:new 0 0 35.9 55;" xml:space="preserve">
<style type="text/css">
	.st0{fill:#5B60A6;}
	.st1{fill:#FFFFFF;}
</style>
<g>
	<path class="st0" d="M13.5,32.7L13.5,32.7c-0.8,0-1.5,0.3-2.1,0.8c-1.1,1.1-1.1,2.8-1.1,2.9c0,5.6,3.2,17.8,3.4,18.3l0.1,0.3h2.9
		V36.5C16.7,32.8,13.6,32.7,13.5,32.7z"/>
	<path class="st0" d="M24.6,33.5c-0.5-0.5-1.2-0.8-2.1-0.8c0,0-3.2,0-3.2,3.7V55h2.9l0.1-0.3c0.1-0.5,3.4-12.7,3.4-18.3
		C25.7,36.4,25.7,34.6,24.6,33.5z"/>
	<path class="st0" d="M33.8,26.5h-5c0-1.9-0.3-6.1-2.2-9.6v-5.1l-0.9,0.3L23.1,13c-1.4-0.8-3.1-1.4-5.2-1.3c-2.1,0-3.8,0.5-5.2,1.3
		l-3.5-1.2v0.9v4.1c-1.8,3.5-2.1,7.7-2.2,9.6h-5H0v28.1h4.2c0,0,0-20.4,0-24c3.1,0,13.8,0,13.8,0s10.6,0,13.8,0c0,3.5,0,24,0,24h4.2
		V26.5H33.8z"/>
	<g>
		<path class="st1" d="M18.6,15.9c0.6-0.2,4-1.3,5.8-1.9c0.3-0.1,0.6-0.2,0.8-0.3c0,0.2,0,0.7,0,1.2c0,2.4,0,7.2,0,7.8
			c-0.7,0.2-5.3,1.8-6.6,2.3C18.6,23.5,18.6,16.7,18.6,15.9z"/>
		<path class="st1" d="M10.6,14.9c0-0.5,0-0.9,0-1.2c0.2,0.1,0.5,0.2,0.8,0.3c1.8,0.6,5.2,1.7,5.8,1.9V25c-1.3-0.5-5.9-2-6.6-2.3
			C10.6,22,10.6,17.3,10.6,14.9z"/>
	</g>
	<path class="st0" d="M18,9.6c2.7,0,4.8-2.2,4.8-4.8C22.8,2.1,20.6,0,18,0c-2.7,0-4.8,2.1-4.8,4.8C13.2,7.5,15.3,9.6,18,9.6z"/>
</g>
</svg>
