<?xml version="1.0" encoding="utf-8"?>
<!-- Generator: Adobe Illustrator 22.1.0, SVG Export Plug-In . SVG Version: 6.00 Build 0)  -->
<svg version="1.1" id="Слой_1" xmlns="http://www.w3.org/2000/svg" xmlns:xlink="http://www.w3.org/1999/xlink" x="0px" y="0px"
	 viewBox="0 0 44.9 50" style="enable-background:new 0 0 44.9 50;" xml:space="preserve">
<style type="text/css">
	.st0{fill:#5B60A6;}
	.st1{fill:#DDE14C;}
</style>
<path class="st0" d="M19.3,46.1h6.4c0.7,0,1.2-0.7,1.3-1.6H18C18,45.4,18.6,46.1,19.3,46.1z"/>
<path class="st0" d="M25.2,46.5h-5.4c-0.4,0-0.7,0.3-0.7,0.8c0,0.4,0.3,0.8,0.7,0.8h5.4c0.4,0,0.7-0.3,0.7-0.8
	C25.8,46.8,25.5,46.5,25.2,46.5z"/>
<path class="st0" d="M25.2,48.5h-5.4c-0.4,0-0.7,0.3-0.7,0.8c0,0.4,0.3,0.8,0.7,0.8h5.4c0.4,0,0.7-0.3,0.7-0.8
	C25.8,48.8,25.5,48.5,25.2,48.5z"/>
<path class="st0" d="M22.5,10.5c-7.3,0-13.1,5.9-13.1,13.1c0,4.5,2.2,8.4,5.6,10.8c1.9,2.2,1.8,5.3,1.8,5.9c0,1.8,0.4,2.8,3.2,2.8
	l2.9,0h0.8H25c3.3,0,3.2-1.1,3.2-2.8c0-0.6-0.1-3.7,1.8-5.9c3.4-2.4,5.6-6.3,5.6-10.8C35.6,16.4,29.7,10.5,22.5,10.5z"/>
<path class="st1" d="M7.8,18l-7.3-1.3c-0.2,0-0.3,0.2-0.3,0.4L0,18.8c0,0.3,0.1,0.5,0.2,0.5l7.4,0.3c0.2,0,0.3-0.2,0.3-0.4L8,18.5
	C8,18.2,7.9,18,7.8,18z"/>
<path class="st1" d="M21.9,7.9l0.6,0C22.8,8,23,7.8,23,7.7l0.6-7.4c0-0.2-0.2-0.3-0.4-0.3l-1.7,0C21.2,0,21,0.1,21,0.3l0.4,7.4
	C21.4,7.8,21.7,7.9,21.9,7.9z"/>
<path class="st1" d="M31.7,10.2c0.2,0.2,0.4,0.2,0.5,0.1l5.5-4.9c0.1-0.1,0.1-0.3-0.1-0.5l-1.2-1.2c-0.2-0.2-0.4-0.2-0.5-0.1
	l-4.8,5.6c-0.1,0.1,0,0.4,0.1,0.5L31.7,10.2z"/>
<path class="st1" d="M11.6,11.1c0.1,0.1,0.3,0,0.5-0.1l0.4-0.4c0.2-0.2,0.2-0.4,0.1-0.5L7.9,4.4C7.8,4.3,7.6,4.3,7.4,4.5L6.2,5.7
	C6,5.9,5.9,6.1,6.1,6.2L11.6,11.1z"/>
<path class="st1" d="M44.7,17.1c0-0.2-0.2-0.4-0.3-0.4L37.1,18c-0.1,0-0.3,0.2-0.2,0.5l0.1,0.6c0,0.2,0.2,0.4,0.3,0.4l7.4-0.3
	c0.2,0,0.3-0.2,0.2-0.5L44.7,17.1z"/>
</svg>
